<svg id="visual" viewBox="0 0 390 844" width="390" height="844" xmlns="http://www.w3.org/2000/svg" xmlns:xlink="http://www.w3.org/1999/xlink" version="1.1"><rect x="0" y="0" width="390" height="844" fill="#f8f9fa"></rect><defs><linearGradient id="grad1_0" x1="0%" y1="0%" x2="100%" y2="100%"><stop offset="30%" stop-color="#007bff" stop-opacity="1"></stop><stop offset="70%" stop-color="#007bff" stop-opacity="1"></stop></linearGradient></defs><defs><linearGradient id="grad1_1" x1="0%" y1="0%" x2="100%" y2="100%"><stop offset="30%" stop-color="#007bff" stop-opacity="1"></stop><stop offset="70%" stop-color="#549dff" stop-opacity="1"></stop></linearGradient></defs><defs><linearGradient id="grad1_2" x1="0%" y1="0%" x2="100%" y2="100%"><stop offset="30%" stop-color="#8abdff" stop-opacity="1"></stop><stop offset="70%" stop-color="#549dff" stop-opacity="1"></stop></linearGradient></defs><defs><linearGradient id="grad1_3" x1="0%" y1="0%" x2="100%" y2="100%"><stop offset="30%" stop-color="#8abdff" stop-opacity="1"></stop><stop offset="70%" stop-color="#c0dcfe" stop-opacity="1"></stop></linearGradient></defs><defs><linearGradient id="grad1_4" x1="0%" y1="0%" x2="100%" y2="100%"><stop offset="30%" stop-color="#f8f9fa" stop-opacity="1"></stop><stop offset="70%" stop-color="#c0dcfe" stop-opacity="1"></stop></linearGradient></defs><defs><linearGradient id="grad2_0" x1="0%" y1="0%" x2="100%" y2="100%"><stop offset="30%" stop-color="#007bff" stop-opacity="1"></stop><stop offset="70%" stop-color="#007bff" stop-opacity="1"></stop></linearGradient></defs><defs><linearGradient id="grad2_1" x1="0%" y1="0%" x2="100%" y2="100%"><stop offset="30%" stop-color="#549dff" stop-opacity="1"></stop><stop offset="70%" stop-color="#007bff" stop-opacity="1"></stop></linearGradient></defs><defs><linearGradient id="grad2_2" x1="0%" y1="0%" x2="100%" y2="100%"><stop offset="30%" stop-color="#549dff" stop-opacity="1"></stop><stop offset="70%" stop-color="#8abdff" stop-opacity="1"></stop></linearGradient></defs><defs><linearGradient id="grad2_3" x1="0%" y1="0%" x2="100%" y2="100%"><stop offset="30%" stop-color="#c0dcfe" stop-opacity="1"></stop><stop offset="70%" stop-color="#8abdff" stop-opacity="1"></stop></linearGradient></defs><defs><linearGradient id="grad2_4" x1="0%" y1="0%" x2="100%" y2="100%"><stop offset="30%" stop-color="#c0dcfe" stop-opacity="1"></stop><stop offset="70%" stop-color="#f8f9fa" stop-opacity="1"></stop></linearGradient></defs><g transform="translate(390, 0)"><path d="M0 273C-37.2 271.4 -74.4 269.9 -104.5 252.2C-134.6 234.6 -157.5 200.8 -169.7 169.7C-181.9 138.6 -183.2 110.1 -198.6 82.3C-214 54.4 -243.5 27.2 -273 0L0 0Z" fill="#dbebfc"></path><path d="M0 218.4C-29.8 217.1 -59.5 215.9 -83.6 201.8C-107.6 187.7 -126 160.7 -135.8 135.8C-145.5 110.9 -146.6 88.1 -158.9 65.8C-171.2 43.5 -194.8 21.8 -218.4 0L0 0Z" fill="#a5cdff"></path><path d="M0 163.8C-22.3 162.9 -44.6 161.9 -62.7 151.3C-80.7 140.7 -94.5 120.5 -101.8 101.8C-109.1 83.2 -109.9 66.1 -119.2 49.4C-128.4 32.7 -146.1 16.3 -163.8 0L0 0Z" fill="#70adff"></path><path d="M0 109.2C-14.9 108.6 -29.8 107.9 -41.8 100.9C-53.8 93.8 -63 80.3 -67.9 67.9C-72.7 55.4 -73.3 44 -79.5 32.9C-85.6 21.8 -97.4 10.9 -109.2 0L0 0Z" fill="#368cff"></path><path d="M0 54.6C-7.4 54.3 -14.9 54 -20.9 50.4C-26.9 46.9 -31.5 40.2 -33.9 33.9C-36.4 27.7 -36.6 22 -39.7 16.5C-42.8 10.9 -48.7 5.4 -54.6 0L0 0Z" fill="#007bff"></path></g><g transform="translate(0, 844)"><path d="M0 -273C41.5 -275.5 83.1 -278.1 104.5 -252.2C125.9 -226.4 127.2 -172.1 142.1 -142.1C157.1 -112.2 185.6 -106.5 209.7 -86.9C233.8 -67.2 253.4 -33.6 273 0L0 0Z" fill="#dbebfc"></path><path d="M0 -218.4C33.2 -220.4 66.4 -222.5 83.6 -201.8C100.7 -181.1 101.8 -137.7 113.7 -113.7C125.7 -89.7 148.5 -85.2 167.8 -69.5C187 -53.8 202.7 -26.9 218.4 0L0 0Z" fill="#a5cdff"></path><path d="M0 -163.8C24.9 -165.3 49.8 -166.8 62.7 -151.3C75.5 -135.8 76.3 -103.3 85.3 -85.3C94.2 -67.3 111.4 -63.9 125.8 -52.1C140.3 -40.3 152 -20.2 163.8 0L0 0Z" fill="#70adff"></path><path d="M0 -109.2C16.6 -110.2 33.2 -111.2 41.8 -100.9C50.4 -90.5 50.9 -68.8 56.9 -56.9C62.8 -44.9 74.3 -42.6 83.9 -34.7C93.5 -26.9 101.4 -13.4 109.2 0L0 0Z" fill="#368cff"></path><path d="M0 -54.6C8.3 -55.1 16.6 -55.6 20.9 -50.4C25.2 -45.3 25.4 -34.4 28.4 -28.4C31.4 -22.4 37.1 -21.3 41.9 -17.4C46.8 -13.4 50.7 -6.7 54.6 0L0 0Z" fill="#007bff"></path></g></svg>