<svg id="visual" viewBox="0 0 500 101" width="500" height="101" xmlns="http://www.w3.org/2000/svg" xmlns:xlink="http://www.w3.org/1999/xlink" version="1.1"><rect x="0" y="0" width="500" height="101" fill="#210000"></rect><defs><linearGradient id="grad1_0" x1="79.8%" y1="0%" x2="100%" y2="100%"><stop offset="-49.009900990099005%" stop-color="#dc3545" stop-opacity="1"></stop><stop offset="149.00990099009903%" stop-color="#dc3545" stop-opacity="1"></stop></linearGradient></defs><defs><linearGradient id="grad1_1" x1="79.8%" y1="0%" x2="100%" y2="100%"><stop offset="-49.009900990099005%" stop-color="#dc3545" stop-opacity="1"></stop><stop offset="149.00990099009903%" stop-color="#a82836" stop-opacity="1"></stop></linearGradient></defs><defs><linearGradient id="grad1_2" x1="79.8%" y1="0%" x2="100%" y2="100%"><stop offset="-49.009900990099005%" stop-color="#761c27" stop-opacity="1"></stop><stop offset="149.00990099009903%" stop-color="#a82836" stop-opacity="1"></stop></linearGradient></defs><defs><linearGradient id="grad1_3" x1="79.8%" y1="0%" x2="100%" y2="100%"><stop offset="-49.009900990099005%" stop-color="#761c27" stop-opacity="1"></stop><stop offset="149.00990099009903%" stop-color="#481118" stop-opacity="1"></stop></linearGradient></defs><defs><linearGradient id="grad1_4" x1="79.8%" y1="0%" x2="100%" y2="100%"><stop offset="-49.009900990099005%" stop-color="#210000" stop-opacity="1"></stop><stop offset="149.00990099009903%" stop-color="#481118" stop-opacity="1"></stop></linearGradient></defs><defs><linearGradient id="grad2_0" x1="0%" y1="0%" x2="20.2%" y2="100%"><stop offset="-49.009900990099005%" stop-color="#dc3545" stop-opacity="1"></stop><stop offset="149.00990099009903%" stop-color="#dc3545" stop-opacity="1"></stop></linearGradient></defs><defs><linearGradient id="grad2_1" x1="0%" y1="0%" x2="20.2%" y2="100%"><stop offset="-49.009900990099005%" stop-color="#a82836" stop-opacity="1"></stop><stop offset="149.00990099009903%" stop-color="#dc3545" stop-opacity="1"></stop></linearGradient></defs><defs><linearGradient id="grad2_2" x1="0%" y1="0%" x2="20.2%" y2="100%"><stop offset="-49.009900990099005%" stop-color="#a82836" stop-opacity="1"></stop><stop offset="149.00990099009903%" stop-color="#761c27" stop-opacity="1"></stop></linearGradient></defs><defs><linearGradient id="grad2_3" x1="0%" y1="0%" x2="20.2%" y2="100%"><stop offset="-49.009900990099005%" stop-color="#481118" stop-opacity="1"></stop><stop offset="149.00990099009903%" stop-color="#761c27" stop-opacity="1"></stop></linearGradient></defs><defs><linearGradient id="grad2_4" x1="0%" y1="0%" x2="20.2%" y2="100%"><stop offset="-49.009900990099005%" stop-color="#481118" stop-opacity="1"></stop><stop offset="149.00990099009903%" stop-color="#210000" stop-opacity="1"></stop></linearGradient></defs><g transform="translate(500, 0)"><path d="M0 101C-10.8 93 -21.5 84.9 -33.3 80.4C-45 75.8 -57.8 74.8 -68.6 68.6C-79.4 62.4 -88.2 50.9 -93.3 38.7C-98.4 26.4 -99.7 13.2 -101 0L0 0Z" fill="#320c0f"></path><path d="M0 80.8C-8.6 74.4 -17.2 67.9 -26.6 64.3C-36 60.7 -46.2 59.9 -54.9 54.9C-63.5 49.9 -70.6 40.8 -74.6 30.9C-78.7 21.1 -79.8 10.5 -80.8 0L0 0Z" fill="#5e1720"></path><path d="M0 60.6C-6.5 55.8 -12.9 50.9 -20 48.2C-27 45.5 -34.7 44.9 -41.2 41.2C-47.6 37.4 -52.9 30.6 -56 23.2C-59 15.8 -59.8 7.9 -60.6 0L0 0Z" fill="#8f222f"></path><path d="M0 40.4C-4.3 37.2 -8.6 34 -13.3 32.2C-18 30.3 -23.1 29.9 -27.4 27.4C-31.8 24.9 -35.3 20.4 -37.3 15.5C-39.4 10.5 -39.9 5.3 -40.4 0L0 0Z" fill="#c22e3e"></path><path d="M0 20.2C-2.2 18.6 -4.3 17 -6.7 16.1C-9 15.2 -11.6 15 -13.7 13.7C-15.9 12.5 -17.6 10.2 -18.7 7.7C-19.7 5.3 -19.9 2.6 -20.2 0L0 0Z" fill="#dc3545"></path></g><g transform="translate(0, 101)"><path d="M0 -101C11.2 -92.2 22.3 -83.4 31.8 -76.7C41.2 -70 48.9 -65.4 60.1 -60.1C71.3 -54.8 85.9 -48.8 93.3 -38.7C100.7 -28.5 100.9 -14.3 101 0L0 0Z" fill="#320c0f"></path><path d="M0 -80.8C8.9 -73.8 17.9 -66.7 25.4 -61.3C33 -56 39.1 -52.3 48.1 -48.1C57 -43.8 68.7 -39 74.6 -30.9C80.6 -22.8 80.7 -11.4 80.8 0L0 0Z" fill="#5e1720"></path><path d="M0 -60.6C6.7 -55.3 13.4 -50 19.1 -46C24.7 -42 29.4 -39.2 36.1 -36.1C42.8 -32.9 51.6 -29.3 56 -23.2C60.4 -17.1 60.5 -8.6 60.6 0L0 0Z" fill="#8f222f"></path><path d="M0 -40.4C4.5 -36.9 8.9 -33.4 12.7 -30.7C16.5 -28 19.6 -26.2 24 -24C28.5 -21.9 34.4 -19.5 37.3 -15.5C40.3 -11.4 40.3 -5.7 40.4 0L0 0Z" fill="#c22e3e"></path><path d="M0 -20.2C2.2 -18.4 4.5 -16.7 6.4 -15.3C8.2 -14 9.8 -13.1 12 -12C14.3 -11 17.2 -9.8 18.7 -7.7C20.1 -5.7 20.2 -2.9 20.2 0L0 0Z" fill="#dc3545"></path></g></svg>