<svg id="visual" viewBox="0 0 515 102" width="515" height="102" xmlns="http://www.w3.org/2000/svg" xmlns:xlink="http://www.w3.org/1999/xlink" version="1.1"><rect x="0" y="0" width="515" height="102" fill="#001220"></rect><defs><linearGradient id="grad1_0" x1="80.2%" y1="0%" x2="100%" y2="100%"><stop offset="-50.98039215686275%" stop-color="#4facf7" stop-opacity="1"></stop><stop offset="150.98039215686273%" stop-color="#4facf7" stop-opacity="1"></stop></linearGradient></defs><defs><linearGradient id="grad1_1" x1="80.2%" y1="0%" x2="100%" y2="100%"><stop offset="-50.98039215686275%" stop-color="#4facf7" stop-opacity="1"></stop><stop offset="150.98039215686273%" stop-color="#3174a8" stop-opacity="1"></stop></linearGradient></defs><defs><linearGradient id="grad1_2" x1="80.2%" y1="0%" x2="100%" y2="100%"><stop offset="-50.98039215686275%" stop-color="#174060" stop-opacity="1"></stop><stop offset="150.98039215686273%" stop-color="#3174a8" stop-opacity="1"></stop></linearGradient></defs><defs><linearGradient id="grad1_3" x1="80.2%" y1="0%" x2="100%" y2="100%"><stop offset="-50.98039215686275%" stop-color="#174060" stop-opacity="1"></stop><stop offset="150.98039215686273%" stop-color="#001220" stop-opacity="1"></stop></linearGradient></defs><defs><linearGradient id="grad2_0" x1="0%" y1="0%" x2="19.8%" y2="100%"><stop offset="-50.98039215686275%" stop-color="#4facf7" stop-opacity="1"></stop><stop offset="150.98039215686273%" stop-color="#4facf7" stop-opacity="1"></stop></linearGradient></defs><defs><linearGradient id="grad2_1" x1="0%" y1="0%" x2="19.8%" y2="100%"><stop offset="-50.98039215686275%" stop-color="#3174a8" stop-opacity="1"></stop><stop offset="150.98039215686273%" stop-color="#4facf7" stop-opacity="1"></stop></linearGradient></defs><defs><linearGradient id="grad2_2" x1="0%" y1="0%" x2="19.8%" y2="100%"><stop offset="-50.98039215686275%" stop-color="#3174a8" stop-opacity="1"></stop><stop offset="150.98039215686273%" stop-color="#174060" stop-opacity="1"></stop></linearGradient></defs><defs><linearGradient id="grad2_3" x1="0%" y1="0%" x2="19.8%" y2="100%"><stop offset="-50.98039215686275%" stop-color="#001220" stop-opacity="1"></stop><stop offset="150.98039215686273%" stop-color="#174060" stop-opacity="1"></stop></linearGradient></defs><g transform="translate(515, 0)"><path d="M0 91.8C-12.3 90.9 -24.6 90.1 -35.1 84.8C-45.7 79.6 -54.5 69.9 -60.1 60.1C-65.7 50.3 -68.2 40.3 -73 30.2C-77.7 20.2 -84.8 10.1 -91.8 0L0 0Z" fill="#0b283e"></path><path d="M0 68.9C-9.2 68.2 -18.4 67.5 -26.3 63.6C-34.3 59.7 -40.8 52.4 -45.1 45.1C-49.3 37.7 -51.2 30.2 -54.7 22.7C-58.3 15.1 -63.6 7.6 -68.8 0L0 0Z" fill="#245983"></path><path d="M0 45.9C-6.1 45.5 -12.3 45 -17.6 42.4C-22.8 39.8 -27.2 35 -30.1 30.1C-32.9 25.1 -34.1 20.1 -36.5 15.1C-38.9 10.1 -42.4 5 -45.9 0L0 0Z" fill="#408fcf"></path><path d="M0 23C-3.1 22.7 -6.1 22.5 -8.8 21.2C-11.4 19.9 -13.6 17.5 -15 15C-16.4 12.6 -17.1 10.1 -18.2 7.6C-19.4 5 -21.2 2.5 -22.9 0L0 0Z" fill="#4facf7"></path></g><g transform="translate(0, 102)"><path d="M0 -91.8C9.9 -84.3 19.8 -76.8 29.8 -72.1C39.9 -67.4 50.2 -65.5 60.1 -60.1C70 -54.7 79.6 -45.7 84.8 -35.1C90 -24.5 90.9 -12.3 91.8 0L0 0Z" fill="#0b283e"></path><path d="M0 -68.8C7.4 -63.2 14.8 -57.6 22.4 -54C29.9 -50.5 37.6 -49.1 45.1 -45.1C52.5 -41 59.7 -34.3 63.6 -26.3C67.5 -18.4 68.2 -9.2 68.9 0L0 0Z" fill="#245983"></path><path d="M0 -45.9C4.9 -42.1 9.9 -38.4 14.9 -36C20 -33.7 25.1 -32.8 30.1 -30.1C35 -27.3 39.8 -22.9 42.4 -17.6C45 -12.3 45.5 -6.1 45.9 0L0 0Z" fill="#408fcf"></path><path d="M0 -22.9C2.5 -21.1 4.9 -19.2 7.5 -18C10 -16.8 12.5 -16.4 15 -15C17.5 -13.7 19.9 -11.4 21.2 -8.8C22.5 -6.1 22.7 -3.1 23 0L0 0Z" fill="#4facf7"></path></g></svg>