<svg id="visual" viewBox="0 0 50 50" width="50" height="50" xmlns="http://www.w3.org/2000/svg" xmlns:xlink="http://www.w3.org/1999/xlink" version="1.1"><rect x="0" y="0" width="50" height="50" fill="#001220"></rect><defs><linearGradient id="grad1_0" x1="0%" y1="0%" x2="100%" y2="100%"><stop offset="30%" stop-color="#4fedf7" stop-opacity="1"></stop><stop offset="70%" stop-color="#4fedf7" stop-opacity="1"></stop></linearGradient></defs><defs><linearGradient id="grad1_1" x1="0%" y1="0%" x2="100%" y2="100%"><stop offset="30%" stop-color="#4fedf7" stop-opacity="1"></stop><stop offset="70%" stop-color="#2b9bb4" stop-opacity="1"></stop></linearGradient></defs><defs><linearGradient id="grad1_2" x1="0%" y1="0%" x2="100%" y2="100%"><stop offset="30%" stop-color="#185169" stop-opacity="1"></stop><stop offset="70%" stop-color="#2b9bb4" stop-opacity="1"></stop></linearGradient></defs><defs><linearGradient id="grad1_3" x1="0%" y1="0%" x2="100%" y2="100%"><stop offset="30%" stop-color="#185169" stop-opacity="1"></stop><stop offset="70%" stop-color="#001220" stop-opacity="1"></stop></linearGradient></defs><defs><linearGradient id="grad2_0" x1="0%" y1="0%" x2="100%" y2="100%"><stop offset="30%" stop-color="#4fedf7" stop-opacity="1"></stop><stop offset="70%" stop-color="#4fedf7" stop-opacity="1"></stop></linearGradient></defs><defs><linearGradient id="grad2_1" x1="0%" y1="0%" x2="100%" y2="100%"><stop offset="30%" stop-color="#2b9bb4" stop-opacity="1"></stop><stop offset="70%" stop-color="#4fedf7" stop-opacity="1"></stop></linearGradient></defs><defs><linearGradient id="grad2_2" x1="0%" y1="0%" x2="100%" y2="100%"><stop offset="30%" stop-color="#2b9bb4" stop-opacity="1"></stop><stop offset="70%" stop-color="#185169" stop-opacity="1"></stop></linearGradient></defs><defs><linearGradient id="grad2_3" x1="0%" y1="0%" x2="100%" y2="100%"><stop offset="30%" stop-color="#001220" stop-opacity="1"></stop><stop offset="70%" stop-color="#185169" stop-opacity="1"></stop></linearGradient></defs><g transform="translate(50, 0)"><path d="M0 35.4C-3.8 31.8 -7.5 28.3 -10.7 25.9C-13.9 23.4 -16.5 22.1 -20.5 20.5C-24.5 18.9 -30 17 -32.7 13.5C-35.4 10.1 -35.4 5 -35.4 0L0 0Z" fill="#0e3043"></path><path d="M0 26.5C-2.8 23.9 -5.7 21.2 -8 19.4C-10.4 17.6 -12.4 16.6 -15.4 15.4C-18.4 14.2 -22.5 12.7 -24.5 10.1C-26.5 7.5 -26.5 3.8 -26.5 0L0 0Z" fill="#21758f"></path><path d="M0 17.7C-1.9 15.9 -3.8 14.1 -5.4 12.9C-6.9 11.7 -8.2 11.1 -10.3 10.3C-12.3 9.4 -15 8.5 -16.3 6.8C-17.7 5 -17.7 2.5 -17.7 0L0 0Z" fill="#39c3d7"></path><path d="M0 8.8C-0.9 8 -1.9 7.1 -2.7 6.5C-3.5 5.9 -4.1 5.5 -5.1 5.1C-6.1 4.7 -7.5 4.2 -8.2 3.4C-8.8 2.5 -8.8 1.3 -8.8 0L0 0Z" fill="#4fedf7"></path></g><g transform="translate(0, 50)"><path d="M0 -35.4C3.7 -32.3 7.3 -29.3 11.5 -27.7C15.6 -26.2 20.2 -26.1 24 -24C27.9 -22 30.9 -17.9 32.7 -13.5C34.4 -9.2 34.9 -4.6 35.4 0L0 0Z" fill="#0e3043"></path><path d="M0 -26.5C2.8 -24.2 5.5 -21.9 8.6 -20.8C11.7 -19.6 15.2 -19.6 18 -18C20.9 -16.5 23.2 -13.4 24.5 -10.1C25.8 -6.9 26.2 -3.4 26.5 0L0 0Z" fill="#21758f"></path><path d="M0 -17.7C1.8 -16.2 3.7 -14.6 5.7 -13.9C7.8 -13.1 10.1 -13.1 12 -12C13.9 -11 15.5 -8.9 16.3 -6.8C17.2 -4.6 17.4 -2.3 17.7 0L0 0Z" fill="#39c3d7"></path><path d="M0 -8.8C0.9 -8.1 1.8 -7.3 2.9 -6.9C3.9 -6.5 5.1 -6.5 6 -6C7 -5.5 7.7 -4.5 8.2 -3.4C8.6 -2.3 8.7 -1.1 8.8 0L0 0Z" fill="#4fedf7"></path></g></svg>