<svg id="visual" viewBox="0 0 380 100" width="380" height="100" xmlns="http://www.w3.org/2000/svg" xmlns:xlink="http://www.w3.org/1999/xlink" version="1.1"><rect x="0" y="0" width="380" height="100" fill="#001220"></rect><defs><linearGradient id="grad1_0" x1="73.7%" y1="0%" x2="100%" y2="100%"><stop offset="-25.999999999999993%" stop-color="#4fedf7" stop-opacity="1"></stop><stop offset="125.99999999999999%" stop-color="#4fedf7" stop-opacity="1"></stop></linearGradient></defs><defs><linearGradient id="grad1_1" x1="73.7%" y1="0%" x2="100%" y2="100%"><stop offset="-25.999999999999993%" stop-color="#4fedf7" stop-opacity="1"></stop><stop offset="125.99999999999999%" stop-color="#31afc5" stop-opacity="1"></stop></linearGradient></defs><defs><linearGradient id="grad1_2" x1="73.7%" y1="0%" x2="100%" y2="100%"><stop offset="-25.999999999999993%" stop-color="#21758f" stop-opacity="1"></stop><stop offset="125.99999999999999%" stop-color="#31afc5" stop-opacity="1"></stop></linearGradient></defs><defs><linearGradient id="grad1_3" x1="73.7%" y1="0%" x2="100%" y2="100%"><stop offset="-25.999999999999993%" stop-color="#21758f" stop-opacity="1"></stop><stop offset="125.99999999999999%" stop-color="#134056" stop-opacity="1"></stop></linearGradient></defs><defs><linearGradient id="grad1_4" x1="73.7%" y1="0%" x2="100%" y2="100%"><stop offset="-25.999999999999993%" stop-color="#001220" stop-opacity="1"></stop><stop offset="125.99999999999999%" stop-color="#134056" stop-opacity="1"></stop></linearGradient></defs><defs><linearGradient id="grad2_0" x1="0%" y1="0%" x2="26.3%" y2="100%"><stop offset="-25.999999999999993%" stop-color="#4fedf7" stop-opacity="1"></stop><stop offset="125.99999999999999%" stop-color="#4fedf7" stop-opacity="1"></stop></linearGradient></defs><defs><linearGradient id="grad2_1" x1="0%" y1="0%" x2="26.3%" y2="100%"><stop offset="-25.999999999999993%" stop-color="#31afc5" stop-opacity="1"></stop><stop offset="125.99999999999999%" stop-color="#4fedf7" stop-opacity="1"></stop></linearGradient></defs><defs><linearGradient id="grad2_2" x1="0%" y1="0%" x2="26.3%" y2="100%"><stop offset="-25.999999999999993%" stop-color="#31afc5" stop-opacity="1"></stop><stop offset="125.99999999999999%" stop-color="#21758f" stop-opacity="1"></stop></linearGradient></defs><defs><linearGradient id="grad2_3" x1="0%" y1="0%" x2="26.3%" y2="100%"><stop offset="-25.999999999999993%" stop-color="#134056" stop-opacity="1"></stop><stop offset="125.99999999999999%" stop-color="#21758f" stop-opacity="1"></stop></linearGradient></defs><defs><linearGradient id="grad2_4" x1="0%" y1="0%" x2="26.3%" y2="100%"><stop offset="-25.999999999999993%" stop-color="#134056" stop-opacity="1"></stop><stop offset="125.99999999999999%" stop-color="#001220" stop-opacity="1"></stop></linearGradient></defs><g transform="translate(380, 0)"><path d="M0 100C-10.5 90.4 -21 80.8 -31 74.8C-41 68.9 -50.3 66.5 -61.5 61.5C-72.7 56.5 -85.7 49 -92.4 38.3C-99.1 27.6 -99.6 13.8 -100 0L0 0Z" fill="#0b283a"></path><path d="M0 80C-8.4 72.3 -16.8 64.7 -24.8 59.9C-32.8 55.1 -40.3 53.2 -49.2 49.2C-58.2 45.2 -68.5 39.2 -73.9 30.6C-79.3 22.1 -79.6 11 -80 0L0 0Z" fill="#1a5a72"></path><path d="M0 60C-6.3 54.2 -12.6 48.5 -18.6 44.9C-24.6 41.3 -30.2 39.9 -36.9 36.9C-43.6 33.9 -51.4 29.4 -55.4 23C-59.5 16.5 -59.7 8.3 -60 0L0 0Z" fill="#2892ab"></path><path d="M0 40C-4.2 36.2 -8.4 32.3 -12.4 29.9C-16.4 27.5 -20.1 26.6 -24.6 24.6C-29.1 22.6 -34.3 19.6 -37 15.3C-39.6 11 -39.8 5.5 -40 0L0 0Z" fill="#3ecedf"></path><path d="M0 20C-2.1 18.1 -4.2 16.2 -6.2 15C-8.2 13.8 -10.1 13.3 -12.3 12.3C-14.5 11.3 -17.1 9.8 -18.5 7.7C-19.8 5.5 -19.9 2.8 -20 0L0 0Z" fill="#4fedf7"></path></g><g transform="translate(0, 100)"><path d="M0 -100C13.4 -99.1 26.8 -98.3 38.3 -92.4C49.8 -86.5 59.4 -75.5 64.3 -64.3C69.3 -53.2 69.7 -41.8 74.8 -31C80 -20.2 90 -10.1 100 0L0 0Z" fill="#0b283a"></path><path d="M0 -80C10.7 -79.3 21.4 -78.6 30.6 -73.9C39.8 -69.2 47.5 -60.4 51.5 -51.5C55.5 -42.5 55.7 -33.4 59.9 -24.8C64 -16.2 72 -8.1 80 0L0 0Z" fill="#1a5a72"></path><path d="M0 -60C8 -59.5 16.1 -59 23 -55.4C29.9 -51.9 35.6 -45.3 38.6 -38.6C41.6 -31.9 41.8 -25.1 44.9 -18.6C48 -12.1 54 -6.1 60 0L0 0Z" fill="#2892ab"></path><path d="M0 -40C5.4 -39.7 10.7 -39.3 15.3 -37C19.9 -34.6 23.7 -30.2 25.7 -25.7C27.7 -21.3 27.9 -16.7 29.9 -12.4C32 -8.1 36 -4 40 0L0 0Z" fill="#3ecedf"></path><path d="M0 -20C2.7 -19.8 5.4 -19.7 7.7 -18.5C10 -17.3 11.9 -15.1 12.9 -12.9C13.9 -10.6 13.9 -8.4 15 -6.2C16 -4 18 -2 20 0L0 0Z" fill="#4fedf7"></path></g></svg>