<svg id="visual" viewBox="0 0 1980 1080" width="1980" height="1080" xmlns="http://www.w3.org/2000/svg" xmlns:xlink="http://www.w3.org/1999/xlink" version="1.1"><rect x="0" y="0" width="1980" height="1080" fill="#faf8f7"></rect><defs><linearGradient id="grad1_0" x1="45.5%" y1="0%" x2="100%" y2="100%"><stop offset="13.333333333333334%" stop-color="#ff5f1f" stop-opacity="1"></stop><stop offset="86.66666666666667%" stop-color="#ff5f1f" stop-opacity="1"></stop></linearGradient></defs><defs><linearGradient id="grad1_1" x1="45.5%" y1="0%" x2="100%" y2="100%"><stop offset="13.333333333333334%" stop-color="#ff5f1f" stop-opacity="1"></stop><stop offset="86.66666666666667%" stop-color="#ff8a54" stop-opacity="1"></stop></linearGradient></defs><defs><linearGradient id="grad1_2" x1="45.5%" y1="0%" x2="100%" y2="100%"><stop offset="13.333333333333334%" stop-color="#ffb087" stop-opacity="1"></stop><stop offset="86.66666666666667%" stop-color="#ff8a54" stop-opacity="1"></stop></linearGradient></defs><defs><linearGradient id="grad1_3" x1="45.5%" y1="0%" x2="100%" y2="100%"><stop offset="13.333333333333334%" stop-color="#ffb087" stop-opacity="1"></stop><stop offset="86.66666666666667%" stop-color="#ffd5bd" stop-opacity="1"></stop></linearGradient></defs><defs><linearGradient id="grad1_4" x1="45.5%" y1="0%" x2="100%" y2="100%"><stop offset="13.333333333333334%" stop-color="#faf8f7" stop-opacity="1"></stop><stop offset="86.66666666666667%" stop-color="#ffd5bd" stop-opacity="1"></stop></linearGradient></defs><defs><linearGradient id="grad2_0" x1="0%" y1="0%" x2="54.5%" y2="100%"><stop offset="13.333333333333334%" stop-color="#ff5f1f" stop-opacity="1"></stop><stop offset="86.66666666666667%" stop-color="#ff5f1f" stop-opacity="1"></stop></linearGradient></defs><defs><linearGradient id="grad2_1" x1="0%" y1="0%" x2="54.5%" y2="100%"><stop offset="13.333333333333334%" stop-color="#ff8a54" stop-opacity="1"></stop><stop offset="86.66666666666667%" stop-color="#ff5f1f" stop-opacity="1"></stop></linearGradient></defs><defs><linearGradient id="grad2_2" x1="0%" y1="0%" x2="54.5%" y2="100%"><stop offset="13.333333333333334%" stop-color="#ff8a54" stop-opacity="1"></stop><stop offset="86.66666666666667%" stop-color="#ffb087" stop-opacity="1"></stop></linearGradient></defs><defs><linearGradient id="grad2_3" x1="0%" y1="0%" x2="54.5%" y2="100%"><stop offset="13.333333333333334%" stop-color="#ffd5bd" stop-opacity="1"></stop><stop offset="86.66666666666667%" stop-color="#ffb087" stop-opacity="1"></stop></linearGradient></defs><defs><linearGradient id="grad2_4" x1="0%" y1="0%" x2="54.5%" y2="100%"><stop offset="13.333333333333334%" stop-color="#ffd5bd" stop-opacity="1"></stop><stop offset="86.66666666666667%" stop-color="#faf8f7" stop-opacity="1"></stop></linearGradient></defs><g transform="translate(1980, 0)"><path d="M0 648C-49.6 593.3 -99.2 538.5 -172.4 530.7C-245.6 522.8 -342.5 561.9 -380.9 524.2C-419.3 486.6 -399.4 372.3 -421.5 306.2C-443.6 240.2 -507.8 222.5 -552.6 179.5C-597.3 136.6 -622.7 68.3 -648 0L0 0Z" fill="#ffe6da"></path><path d="M0 518.4C-39.7 474.6 -79.4 430.8 -137.9 424.6C-196.5 418.3 -274 449.5 -304.7 419.4C-335.5 389.3 -319.5 297.8 -337.2 245C-354.9 192.2 -406.2 178 -442.1 143.6C-477.9 109.2 -498.1 54.6 -518.4 0L0 0Z" fill="#ffc3a2"></path><path d="M0 388.8C-29.8 356 -59.5 323.1 -103.5 318.4C-147.4 313.7 -205.5 337.1 -228.5 314.5C-251.6 292 -239.6 223.4 -252.9 183.7C-266.2 144.1 -304.7 133.5 -331.5 107.7C-358.4 81.9 -373.6 41 -388.8 0L0 0Z" fill="#ff9e6d"></path><path d="M0 259.2C-19.8 237.3 -39.7 215.4 -69 212.3C-98.3 209.1 -137 224.8 -152.4 209.7C-167.7 194.6 -159.8 148.9 -168.6 122.5C-177.4 96.1 -203.1 89 -221 71.8C-238.9 54.6 -249.1 27.3 -259.2 0L0 0Z" fill="#ff763a"></path><path d="M0 129.6C-9.9 118.7 -19.8 107.7 -34.5 106.1C-49.1 104.6 -68.5 112.4 -76.2 104.8C-83.9 97.3 -79.9 74.5 -84.3 61.2C-88.7 48 -101.6 44.5 -110.5 35.9C-119.5 27.3 -124.5 13.7 -129.6 0L0 0Z" fill="#ff5f1f"></path></g><g transform="translate(0, 1080)"><path d="M0 -648C64.6 -622.6 129.2 -597.2 185.1 -569.7C241 -542.2 288.2 -512.7 353.3 -486.2C418.3 -459.7 501.2 -436.3 524.2 -380.9C547.3 -325.5 510.5 -238.1 521.2 -169.3C531.8 -100.5 589.9 -50.3 648 0L0 0Z" fill="#ffe6da"></path><path d="M0 -518.4C51.7 -498.1 103.4 -477.7 148.1 -455.7C192.8 -433.8 230.6 -410.2 282.6 -389C334.6 -367.8 401 -349 419.4 -304.7C437.8 -260.4 408.4 -190.5 416.9 -135.5C425.5 -80.4 471.9 -40.2 518.4 0L0 0Z" fill="#ffc3a2"></path><path d="M0 -388.8C38.8 -373.5 77.5 -358.3 111.1 -341.8C144.6 -325.3 172.9 -307.6 212 -291.7C251 -275.8 300.7 -261.8 314.5 -228.5C328.4 -195.3 306.3 -142.9 312.7 -101.6C319.1 -60.3 354 -30.2 388.8 0L0 0Z" fill="#ff9e6d"></path><path d="M0 -259.2C25.8 -249 51.7 -238.9 74 -227.9C96.4 -216.9 115.3 -205.1 141.3 -194.5C167.3 -183.9 200.5 -174.5 209.7 -152.4C218.9 -130.2 204.2 -95.3 208.5 -67.7C212.7 -40.2 236 -20.1 259.2 0L0 0Z" fill="#ff763a"></path><path d="M0 -129.6C12.9 -124.5 25.8 -119.4 37 -113.9C48.2 -108.4 57.6 -102.5 70.7 -97.2C83.7 -91.9 100.2 -87.3 104.8 -76.2C109.5 -65.1 102.1 -47.6 104.2 -33.9C106.4 -20.1 118 -10.1 129.6 0L0 0Z" fill="#ff5f1f"></path></g></svg>