<svg id="visual" viewBox="0 0 1980 1080" width="1980" height="1080" xmlns="http://www.w3.org/2000/svg" xmlns:xlink="http://www.w3.org/1999/xlink" version="1.1"><rect x="0" y="0" width="1980" height="1080" fill="#faf8f7"></rect><defs><linearGradient id="grad1_0" x1="45.5%" y1="0%" x2="100%" y2="100%"><stop offset="13.333333333333334%" stop-color="#ad841f" stop-opacity="1"></stop><stop offset="86.66666666666667%" stop-color="#ad841f" stop-opacity="1"></stop></linearGradient></defs><defs><linearGradient id="grad1_1" x1="45.5%" y1="0%" x2="100%" y2="100%"><stop offset="13.333333333333334%" stop-color="#ad841f" stop-opacity="1"></stop><stop offset="86.66666666666667%" stop-color="#cc9c5a" stop-opacity="1"></stop></linearGradient></defs><defs><linearGradient id="grad1_2" x1="45.5%" y1="0%" x2="100%" y2="100%"><stop offset="13.333333333333334%" stop-color="#e3b88f" stop-opacity="1"></stop><stop offset="86.66666666666667%" stop-color="#cc9c5a" stop-opacity="1"></stop></linearGradient></defs><defs><linearGradient id="grad1_3" x1="45.5%" y1="0%" x2="100%" y2="100%"><stop offset="13.333333333333334%" stop-color="#e3b88f" stop-opacity="1"></stop><stop offset="86.66666666666667%" stop-color="#f3d7c3" stop-opacity="1"></stop></linearGradient></defs><defs><linearGradient id="grad1_4" x1="45.5%" y1="0%" x2="100%" y2="100%"><stop offset="13.333333333333334%" stop-color="#faf8f7" stop-opacity="1"></stop><stop offset="86.66666666666667%" stop-color="#f3d7c3" stop-opacity="1"></stop></linearGradient></defs><defs><linearGradient id="grad2_0" x1="0%" y1="0%" x2="54.5%" y2="100%"><stop offset="13.333333333333334%" stop-color="#ad841f" stop-opacity="1"></stop><stop offset="86.66666666666667%" stop-color="#ad841f" stop-opacity="1"></stop></linearGradient></defs><defs><linearGradient id="grad2_1" x1="0%" y1="0%" x2="54.5%" y2="100%"><stop offset="13.333333333333334%" stop-color="#cc9c5a" stop-opacity="1"></stop><stop offset="86.66666666666667%" stop-color="#ad841f" stop-opacity="1"></stop></linearGradient></defs><defs><linearGradient id="grad2_2" x1="0%" y1="0%" x2="54.5%" y2="100%"><stop offset="13.333333333333334%" stop-color="#cc9c5a" stop-opacity="1"></stop><stop offset="86.66666666666667%" stop-color="#e3b88f" stop-opacity="1"></stop></linearGradient></defs><defs><linearGradient id="grad2_3" x1="0%" y1="0%" x2="54.5%" y2="100%"><stop offset="13.333333333333334%" stop-color="#f3d7c3" stop-opacity="1"></stop><stop offset="86.66666666666667%" stop-color="#e3b88f" stop-opacity="1"></stop></linearGradient></defs><defs><linearGradient id="grad2_4" x1="0%" y1="0%" x2="54.5%" y2="100%"><stop offset="13.333333333333334%" stop-color="#f3d7c3" stop-opacity="1"></stop><stop offset="86.66666666666667%" stop-color="#faf8f7" stop-opacity="1"></stop></linearGradient></defs><g transform="translate(1980, 0)"><path d="M0 702C-50.1 662.1 -100.3 622.2 -165.4 617.2C-230.5 612.3 -310.7 642.3 -351 607.9C-391.3 573.6 -391.9 475 -413.7 413.7C-435.5 352.3 -478.5 328.1 -503.2 290.5C-527.8 252.9 -534 201.8 -564.1 151.2C-594.2 100.5 -648.1 50.2 -702 0L0 0Z" fill="#f7e7dd"></path><path d="M0 561.6C-40.1 529.7 -80.2 497.7 -132.3 493.8C-184.4 489.8 -248.5 513.8 -280.8 486.4C-313.1 458.9 -313.5 380 -330.9 330.9C-348.4 281.8 -382.8 262.5 -402.5 232.4C-422.2 202.3 -427.2 161.4 -451.3 120.9C-475.3 80.4 -518.5 40.2 -561.6 0L0 0Z" fill="#ecc7a9"></path><path d="M0 421.2C-30.1 397.3 -60.2 373.3 -99.2 370.3C-138.3 367.4 -186.4 385.4 -210.6 364.8C-234.8 344.2 -235.1 285 -248.2 248.2C-261.3 211.4 -287.1 196.9 -301.9 174.3C-316.7 151.7 -320.4 121.1 -338.5 90.7C-356.5 60.3 -388.9 30.1 -421.2 0L0 0Z" fill="#d8aa74"></path><path d="M0 280.8C-20.1 264.8 -40.1 248.9 -66.2 246.9C-92.2 244.9 -124.3 256.9 -140.4 243.2C-156.5 229.5 -156.7 190 -165.5 165.5C-174.2 140.9 -191.4 131.2 -201.3 116.2C-211.1 101.2 -213.6 80.7 -225.6 60.5C-237.7 40.2 -259.2 20.1 -280.8 0L0 0Z" fill="#bd903e"></path><path d="M0 140.4C-10 132.4 -20.1 124.4 -33.1 123.4C-46.1 122.5 -62.1 128.5 -70.2 121.6C-78.3 114.7 -78.4 95 -82.7 82.7C-87.1 70.5 -95.7 65.6 -100.6 58.1C-105.6 50.6 -106.8 40.4 -112.8 30.2C-118.8 20.1 -129.6 10 -140.4 0L0 0Z" fill="#ad841f"></path></g><g transform="translate(0, 1080)"><path d="M0 -702C54.8 -664.8 109.6 -627.5 160.2 -597.9C210.9 -568.3 257.4 -546.2 295.5 -511.8C333.6 -477.4 363.3 -430.6 391 -391C418.8 -351.4 444.5 -319 499.7 -288.5C554.9 -258 639.5 -229.5 678.1 -181.7C716.7 -133.9 709.3 -67 702 0L0 0Z" fill="#f7e7dd"></path><path d="M0 -561.6C43.8 -531.8 87.6 -502 128.2 -478.3C168.7 -454.6 205.9 -437 236.4 -409.5C266.9 -381.9 290.6 -344.5 312.8 -312.8C335 -281.1 355.6 -255.2 399.8 -230.8C443.9 -206.4 511.6 -183.6 542.5 -145.4C573.4 -107.1 567.5 -53.6 561.6 0L0 0Z" fill="#ecc7a9"></path><path d="M0 -421.2C32.9 -398.9 65.7 -376.5 96.1 -358.7C126.5 -341 154.4 -327.7 177.3 -307.1C200.2 -286.4 218 -258.4 234.6 -234.6C251.3 -210.9 266.7 -191.4 299.8 -173.1C332.9 -154.8 383.7 -137.7 406.8 -109C430 -80.4 425.6 -40.2 421.2 0L0 0Z" fill="#d8aa74"></path><path d="M0 -280.8C21.9 -265.9 43.8 -251 64.1 -239.2C84.3 -227.3 103 -218.5 118.2 -204.7C133.4 -191 145.3 -172.3 156.4 -156.4C167.5 -140.6 177.8 -127.6 199.9 -115.4C221.9 -103.2 255.8 -91.8 271.2 -72.7C286.7 -53.6 283.7 -26.8 280.8 0L0 0Z" fill="#bd903e"></path><path d="M0 -140.4C11 -133 21.9 -125.5 32 -119.6C42.2 -113.7 51.5 -109.2 59.1 -102.4C66.7 -95.5 72.7 -86.1 78.2 -78.2C83.8 -70.3 88.9 -63.8 99.9 -57.7C111 -51.6 127.9 -45.9 135.6 -36.3C143.3 -26.8 141.9 -13.4 140.4 0L0 0Z" fill="#ad841f"></path></g></svg>