<svg id="visual" viewBox="0 0 390 844" width="390" height="844" xmlns="http://www.w3.org/2000/svg" xmlns:xlink="http://www.w3.org/1999/xlink" version="1.1"><rect x="0" y="0" width="390" height="844" fill="#000000"></rect><defs><linearGradient id="grad1_0" x1="0%" y1="0%" x2="100%" y2="100%"><stop offset="30%" stop-color="#89d3df" stop-opacity="1"></stop><stop offset="70%" stop-color="#89d3df" stop-opacity="1"></stop></linearGradient></defs><defs><linearGradient id="grad1_1" x1="0%" y1="0%" x2="100%" y2="100%"><stop offset="30%" stop-color="#89d3df" stop-opacity="1"></stop><stop offset="70%" stop-color="#519ca8" stop-opacity="1"></stop></linearGradient></defs><defs><linearGradient id="grad1_2" x1="0%" y1="0%" x2="100%" y2="100%"><stop offset="30%" stop-color="#106873" stop-opacity="1"></stop><stop offset="70%" stop-color="#519ca8" stop-opacity="1"></stop></linearGradient></defs><defs><linearGradient id="grad1_3" x1="0%" y1="0%" x2="100%" y2="100%"><stop offset="30%" stop-color="#106873" stop-opacity="1"></stop><stop offset="70%" stop-color="#003943" stop-opacity="1"></stop></linearGradient></defs><defs><linearGradient id="grad1_4" x1="0%" y1="0%" x2="100%" y2="100%"><stop offset="30%" stop-color="#000000" stop-opacity="1"></stop><stop offset="70%" stop-color="#003943" stop-opacity="1"></stop></linearGradient></defs><defs><linearGradient id="grad2_0" x1="0%" y1="0%" x2="100%" y2="100%"><stop offset="30%" stop-color="#89d3df" stop-opacity="1"></stop><stop offset="70%" stop-color="#89d3df" stop-opacity="1"></stop></linearGradient></defs><defs><linearGradient id="grad2_1" x1="0%" y1="0%" x2="100%" y2="100%"><stop offset="30%" stop-color="#519ca8" stop-opacity="1"></stop><stop offset="70%" stop-color="#89d3df" stop-opacity="1"></stop></linearGradient></defs><defs><linearGradient id="grad2_2" x1="0%" y1="0%" x2="100%" y2="100%"><stop offset="30%" stop-color="#519ca8" stop-opacity="1"></stop><stop offset="70%" stop-color="#106873" stop-opacity="1"></stop></linearGradient></defs><defs><linearGradient id="grad2_3" x1="0%" y1="0%" x2="100%" y2="100%"><stop offset="30%" stop-color="#003943" stop-opacity="1"></stop><stop offset="70%" stop-color="#106873" stop-opacity="1"></stop></linearGradient></defs><defs><linearGradient id="grad2_4" x1="0%" y1="0%" x2="100%" y2="100%"><stop offset="30%" stop-color="#003943" stop-opacity="1"></stop><stop offset="70%" stop-color="#000000" stop-opacity="1"></stop></linearGradient></defs><g transform="translate(390, 0)"><path d="M0 253.5C-35.8 252.5 -71.6 251.5 -97 234.2C-122.4 216.9 -137.3 183.2 -158.4 158.4C-179.5 133.6 -206.7 117.5 -223.6 92.6C-240.5 67.7 -247 33.8 -253.5 0L0 0Z" fill="#00232d"></path><path d="M0 202.8C-28.7 202 -57.3 201.2 -77.6 187.4C-97.9 173.5 -109.8 146.6 -126.7 126.7C-143.6 106.8 -165.4 94 -178.9 74.1C-192.4 54.1 -197.6 27.1 -202.8 0L0 0Z" fill="#00505b"></path><path d="M0 152.1C-21.5 151.5 -43 150.9 -58.2 140.5C-73.4 130.1 -82.4 109.9 -95 95C-107.7 80.1 -124 70.5 -134.1 55.6C-144.3 40.6 -148.2 20.3 -152.1 0L0 0Z" fill="#34828d"></path><path d="M0 101.4C-14.3 101 -28.7 100.6 -38.8 93.7C-49 86.8 -54.9 73.3 -63.4 63.4C-71.8 53.4 -82.7 47 -89.4 37C-96.2 27.1 -98.8 13.5 -101.4 0L0 0Z" fill="#6db7c3"></path><path d="M0 50.7C-7.2 50.5 -14.3 50.3 -19.4 46.8C-24.5 43.4 -27.5 36.6 -31.7 31.7C-35.9 26.7 -41.3 23.5 -44.7 18.5C-48.1 13.5 -49.4 6.8 -50.7 0L0 0Z" fill="#89d3df"></path></g><g transform="translate(0, 844)"><path d="M0 -253.5C28.5 -232.6 57 -211.8 80.7 -194.9C104.5 -178.1 123.5 -165.2 151.3 -151.3C179.1 -137.4 215.7 -122.4 234.2 -97C252.7 -71.6 253.1 -35.8 253.5 0L0 0Z" fill="#00232d"></path><path d="M0 -202.8C22.8 -186.1 45.6 -169.4 64.6 -156C83.6 -142.5 98.8 -132.2 121.1 -121.1C143.3 -109.9 172.6 -97.9 187.4 -77.6C202.2 -57.3 202.5 -28.6 202.8 0L0 0Z" fill="#00505b"></path><path d="M0 -152.1C17.1 -139.6 34.2 -127.1 48.4 -117C62.7 -106.9 74.1 -99.1 90.8 -90.8C107.5 -82.4 129.4 -73.4 140.5 -58.2C151.6 -43 151.9 -21.5 152.1 0L0 0Z" fill="#34828d"></path><path d="M0 -101.4C11.4 -93.1 22.8 -84.7 32.3 -78C41.8 -71.2 49.4 -66.1 60.5 -60.5C71.6 -55 86.3 -49 93.7 -38.8C101.1 -28.6 101.2 -14.3 101.4 0L0 0Z" fill="#6db7c3"></path><path d="M0 -50.7C5.7 -46.5 11.4 -42.4 16.1 -39C20.9 -35.6 24.7 -33 30.3 -30.3C35.8 -27.5 43.1 -24.5 46.8 -19.4C50.5 -14.3 50.6 -7.2 50.7 0L0 0Z" fill="#89d3df"></path></g></svg>