<svg id="visual" viewBox="0 0 390 844" width="390" height="844" xmlns="http://www.w3.org/2000/svg" xmlns:xlink="http://www.w3.org/1999/xlink" version="1.1"><rect x="0" y="0" width="390" height="844" fill="#faf8f7"></rect><defs><linearGradient id="grad1_0" x1="0%" y1="0%" x2="100%" y2="100%"><stop offset="30%" stop-color="#ff5f1f" stop-opacity="1"></stop><stop offset="70%" stop-color="#ff5f1f" stop-opacity="1"></stop></linearGradient></defs><defs><linearGradient id="grad1_1" x1="0%" y1="0%" x2="100%" y2="100%"><stop offset="30%" stop-color="#ff5f1f" stop-opacity="1"></stop><stop offset="70%" stop-color="#ff8a54" stop-opacity="1"></stop></linearGradient></defs><defs><linearGradient id="grad1_2" x1="0%" y1="0%" x2="100%" y2="100%"><stop offset="30%" stop-color="#ffb087" stop-opacity="1"></stop><stop offset="70%" stop-color="#ff8a54" stop-opacity="1"></stop></linearGradient></defs><defs><linearGradient id="grad1_3" x1="0%" y1="0%" x2="100%" y2="100%"><stop offset="30%" stop-color="#ffb087" stop-opacity="1"></stop><stop offset="70%" stop-color="#ffd5bd" stop-opacity="1"></stop></linearGradient></defs><defs><linearGradient id="grad1_4" x1="0%" y1="0%" x2="100%" y2="100%"><stop offset="30%" stop-color="#faf8f7" stop-opacity="1"></stop><stop offset="70%" stop-color="#ffd5bd" stop-opacity="1"></stop></linearGradient></defs><defs><linearGradient id="grad2_0" x1="0%" y1="0%" x2="100%" y2="100%"><stop offset="30%" stop-color="#ff5f1f" stop-opacity="1"></stop><stop offset="70%" stop-color="#ff5f1f" stop-opacity="1"></stop></linearGradient></defs><defs><linearGradient id="grad2_1" x1="0%" y1="0%" x2="100%" y2="100%"><stop offset="30%" stop-color="#ff8a54" stop-opacity="1"></stop><stop offset="70%" stop-color="#ff5f1f" stop-opacity="1"></stop></linearGradient></defs><defs><linearGradient id="grad2_2" x1="0%" y1="0%" x2="100%" y2="100%"><stop offset="30%" stop-color="#ff8a54" stop-opacity="1"></stop><stop offset="70%" stop-color="#ffb087" stop-opacity="1"></stop></linearGradient></defs><defs><linearGradient id="grad2_3" x1="0%" y1="0%" x2="100%" y2="100%"><stop offset="30%" stop-color="#ffd5bd" stop-opacity="1"></stop><stop offset="70%" stop-color="#ffb087" stop-opacity="1"></stop></linearGradient></defs><defs><linearGradient id="grad2_4" x1="0%" y1="0%" x2="100%" y2="100%"><stop offset="30%" stop-color="#ffd5bd" stop-opacity="1"></stop><stop offset="70%" stop-color="#faf8f7" stop-opacity="1"></stop></linearGradient></defs><g transform="translate(390, 0)"><path d="M0 234C-23.1 223.8 -46.2 213.5 -65.8 202.6C-85.4 191.6 -101.5 179.9 -124 170.7C-146.5 161.5 -175.3 154.9 -189.3 137.5C-203.3 120.2 -202.4 92.1 -207.3 67.4C-212.3 42.7 -223.1 21.3 -234 0L0 0Z" fill="#ffe6da"></path><path d="M0 187.2C-18.5 179 -37 170.8 -52.7 162.1C-68.3 153.3 -81.2 143.9 -99.2 136.6C-117.2 129.2 -140.3 123.9 -151.4 110C-162.6 96.1 -161.9 73.7 -165.9 53.9C-169.8 34.1 -178.5 17.1 -187.2 0L0 0Z" fill="#ffc3a2"></path><path d="M0 140.4C-13.9 134.3 -27.7 128.1 -39.5 121.5C-51.3 115 -60.9 107.9 -74.4 102.4C-87.9 96.9 -105.2 92.9 -113.6 82.5C-122 72.1 -121.4 55.2 -124.4 40.4C-127.4 25.6 -133.9 12.8 -140.4 0L0 0Z" fill="#ff9e6d"></path><path d="M0 93.6C-9.2 89.5 -18.5 85.4 -26.3 81C-34.2 76.6 -40.6 72 -49.6 68.3C-58.6 64.6 -70.1 62 -75.7 55C-81.3 48.1 -80.9 36.8 -82.9 26.9C-84.9 17.1 -89.3 8.5 -93.6 0L0 0Z" fill="#ff763a"></path><path d="M0 46.8C-4.6 44.8 -9.2 42.7 -13.2 40.5C-17.1 38.3 -20.3 36 -24.8 34.1C-29.3 32.3 -35.1 31 -37.9 27.5C-40.7 24 -40.5 18.4 -41.5 13.5C-42.5 8.5 -44.6 4.3 -46.8 0L0 0Z" fill="#ff5f1f"></path></g><g transform="translate(0, 844)"><path d="M0 -234C22.1 -225.5 44.2 -217 68.3 -210.2C92.4 -203.4 118.4 -198.2 131.7 -181.2C144.9 -164.3 145.3 -135.5 161 -117C176.7 -98.4 207.8 -90.1 222.5 -72.3C237.3 -54.5 235.6 -27.3 234 0L0 0Z" fill="#ffe6da"></path><path d="M0 -187.2C17.7 -180.4 35.4 -173.6 54.6 -168.1C73.9 -162.7 94.8 -158.5 105.3 -145C115.9 -131.4 116.2 -108.4 128.8 -93.6C141.4 -78.7 166.3 -72.1 178 -57.8C189.8 -43.6 188.5 -21.8 187.2 0L0 0Z" fill="#ffc3a2"></path><path d="M0 -140.4C13.3 -135.3 26.5 -130.2 41 -126.1C55.4 -122 71.1 -118.9 79 -108.7C86.9 -98.6 87.2 -81.3 96.6 -70.2C106 -59.1 124.7 -54.1 133.5 -43.4C142.4 -32.7 141.4 -16.4 140.4 0L0 0Z" fill="#ff9e6d"></path><path d="M0 -93.6C8.8 -90.2 17.7 -86.8 27.3 -84.1C37 -81.3 47.4 -79.3 52.7 -72.5C58 -65.7 58.1 -54.2 64.4 -46.8C70.7 -39.4 83.1 -36 89 -28.9C94.9 -21.8 94.3 -10.9 93.6 0L0 0Z" fill="#ff763a"></path><path d="M0 -46.8C4.4 -45.1 8.8 -43.4 13.7 -42C18.5 -40.7 23.7 -39.6 26.3 -36.2C29 -32.9 29.1 -27.1 32.2 -23.4C35.3 -19.7 41.6 -18 44.5 -14.5C47.5 -10.9 47.1 -5.5 46.8 0L0 0Z" fill="#ff5f1f"></path></g></svg>